<svg width="2400" height="1000" viewBox="0 0 2400 1000" fill="none" xmlns="http://www.w3.org/2000/svg">
  <path d="M2297.92 569.9V0h-142.4v557.4l.2.66c-.08 14.06.44 28.2 2.02 42.5A348 348 0 0 0 2174.7 676c31.96 92.44 143.66 128.6 225.3 74.98-62.26-55.54-99.2-85.8-102.1-181.06zM1036.96 217.24v523.08c-.42 71.4-45.02 140.32-101.94 180.74l119.54 78.9c66.88-56.4 112.52-137.36 122.6-229 1.6-14.28 2.1-28.44 2.02-42.5l.22-.66V217.26zm393.66 352.2-.96-4.28v-206.8h90.92l36.62-142.74h-127.54V0h-142.4v557.08l.2.66c-.08 14.08.44 28.2 2.02 42.5a349 349 0 0 0 17.24 76.24c32.04 91.96 143.08 128 224.36 74.58-56.28-48.42-99.4-85.88-100.46-181.6M1994 568c-25.8 47.88-90.72 90-145.84 90q-1.52 0-2.96-.06c-86.62-2.44-162.98-75.54-163.48-156.4-.64-106.52 82.14-162.56 164.44-170.88 27.98-2.74 73.86 11.86 102.46 36.4L1734.46 514.7a104 104 0 0 0 142.86 27l224.24-149.2-4.64-10.4a278 278 0 0 0-70.52-95.82 275.2 275.2 0 0 0-181.62-68.4 276 276 0 0 0-205.56 92.08c-53.02 59.32-77.4 135.96-68.58 215.8 14.3 129.72 118.94 232.3 248.8 243.92q12.8 1.14 25.4 1.14c100.28 0 191.18-53.56 239.92-140.26l-90.8-62.56zM473.46 602.46a210.4 210.4 0 0 1-128.2 39c-108.48-2.9-198.74-89.96-205.48-198.5-7.64-123.3 89.88-225.68 211.26-225.68 81.56 0 152.32 46.28 187.68 114.04l113.72-75.08C591.88 148.04 475.58 75.44 342.5 77.66 152.34 80.82-2.04 240.06.02 430.64c2.08 191.06 157.26 345.3 348.4 345.3 129.34 0 242.16-70.7 302.28-175.6l-2.38-1.62c-53.04-36.56-122.4-33.62-174.88 3.72zm526.7 28.08c-81.2 53.6-192.38 17.64-224.4-74.38a348 348 0 0 1-17.2-76.08 360 360 0 0 1-2-42.48l-.22-.66V217.28h142.4v232.16c1.28 91.7 42.92 138.7 101.42 181.12z" fill="#000"/>
</svg>
